# xmcd
# 
# Track frame offsets:
#     150
#     22412
#     42107
#     63147
#     83685
#     105165
#     125595
#     144167
#     163050
#     183542
#     201700
# 
# Disc length: 3036
# 
# Revision: 7
# Processed by: cddbd v1.5.2PL0 Copyright (c) Steve Scherf et al.
# Submitted via: BonkEnc v1.0.8
# 
DISCID=950bda0b
DTITLE=TUBE - 終わらない夏に
DYEAR=1994
DGENRE=JPop
TTITLE0=もう負けないよ
TTITLE1=夏を抱きしめて
TTITLE2=終わらない夢に
TTITLE3=My summer girl
TTITLE4=それでも恋は素敵
TTITLE5=Secret
TTITLE6=傷だらけのhero
TTITLE7=Tシャツとブルージーンズと…
TTITLE8=一人になっちゃった
TTITLE9=Horizon
TTITLE10=夏よありがとう
EXTD=YEAR: 1994
EXTT0=
EXTT1=
EXTT2=
EXTT3=
EXTT4=
EXTT5=
EXTT6=
EXTT7=
EXTT8=
EXTT9=
EXTT10=
PLAYORDER=
